<?xml version="1.0" encoding="iso-8859-1"?>
<!-- Generator: Adobe Illustrator 18.1.1, SVG Export Plug-In . SVG Version: 6.00 Build 0)  -->
<svg version="1.1" id="Capa_1" xmlns="http://www.w3.org/2000/svg" xmlns:xlink="http://www.w3.org/1999/xlink" x="0px" y="0px"
	 viewBox="0 0 298.577 298.577" style="enable-background:new 0 0 298.577 298.577;" xml:space="preserve">
<g>
	<g>
		<path style="fill:#010002;" d="M149.291,298.577c44.274,0,84.023-19.287,111.359-49.898h2.235v-2.584
			c22.235-26.069,35.691-59.857,35.691-96.81C298.577,66.835,231.737,0,149.291,0S0,66.841,0,149.291
			S66.841,298.577,149.291,298.577z M119.915,237.801h-7.283v-2.703v-53.183H236.61h15.398v33.244v22.643h-18.754h-54.592H119.915z
			 M149.291,149.291l-39.743,21.745h-7.789v4.264l-21.283,11.645C55.99,128.634,97.283,70.327,149.297,70.327v78.964H149.291z
			 M149.291,27.201c67.319,0,122.091,54.771,122.091,122.091c0,15.757-3.035,30.812-8.496,44.655v-22.909h-22.947
			c1.67-6.989,2.654-14.245,2.654-21.745c0-51.53-41.772-93.302-93.302-93.302S55.99,97.762,55.99,149.291
			c0,34.146,18.4,63.92,45.77,80.183v19.205H220.07c-19.983,14.272-44.405,22.703-70.779,22.703
			c-67.319,0-122.091-54.771-122.091-122.091S81.967,27.201,149.291,27.201z"/>
		<path style="fill:#010002;" d="M140.496,221.952c0.729-0.626,2.083-1.643,4.058-3.046l3.166-2.241
			c2.66-1.882,4.58-3.59,5.744-5.124c1.773-2.306,2.66-4.95,2.66-7.919c0-3.873-1.251-6.989-3.764-9.344
			c-2.518-2.355-5.896-3.53-10.144-3.53c-5.374,0-9.121,2.002-11.221,6.005c-1.11,2.105-1.73,4.863-1.86,8.278h7.669
			c0.092-2.252,0.386-3.894,0.887-4.928c0.865-1.789,2.502-2.687,4.895-2.687c1.751,0,3.1,0.566,4.041,1.692
			c0.946,1.126,1.414,2.54,1.414,4.237c0,2.089-0.821,4.003-2.464,5.76c-1.066,1.126-3.421,2.986-7.06,5.591
			c-4.194,2.991-6.848,5.825-7.974,8.501c-1.164,2.382-1.784,5.009-1.855,7.892h27.494v-6.951h-17.53
			C139.153,223.312,139.762,222.583,140.496,221.952z"/>
		<path style="fill:#010002;" d="M183.563,191.194h-8.86l-14.762,24.362v6.891h15.893v8.637h7.729v-8.637h4.542v-6.173h-4.542
			V191.194z M175.834,216.279h-10.019l10.019-17.291V216.279z"/>
		<path style="fill:#010002;" d="M236.637,231.09v-17.737c0-2.698-0.092-4.645-0.277-5.831c-0.18-1.191-0.691-2.35-1.512-3.481
			c-0.979-1.333-2.219-2.317-3.737-2.964c-1.131-0.484-2.388-0.723-3.709-0.848c-0.451-0.044-0.876-0.125-1.349-0.125
			c-1.653,0-3.231,0.348-4.727,1.039s-2.817,1.915-3.96,3.671v-14.392h-7.887v30.105v10.568h7.887v-16.361
			c0-0.772,0.147-1.382,0.239-2.045c0.223-1.566,0.615-2.948,1.371-3.927c0.859-1.115,2.127-1.664,3.628-1.882
			c0.37-0.054,0.674-0.207,1.082-0.207c1.996,0,3.356,0.702,4.068,2.105c0.555,1.001,0.821,2.312,0.821,3.938v18.379h8.061V231.09z"
			/>
	</g>
</g>
<g>
</g>
<g>
</g>
<g>
</g>
<g>
</g>
<g>
</g>
<g>
</g>
<g>
</g>
<g>
</g>
<g>
</g>
<g>
</g>
<g>
</g>
<g>
</g>
<g>
</g>
<g>
</g>
<g>
</g>
</svg>
