<?xml version="1.0" encoding="iso-8859-1"?>
<!-- Generator: Adobe Illustrator 18.1.1, SVG Export Plug-In . SVG Version: 6.00 Build 0)  -->
<svg version="1.1" id="Capa_1" xmlns="http://www.w3.org/2000/svg" xmlns:xlink="http://www.w3.org/1999/xlink" x="0px" y="0px"
	 viewBox="0 0 295.755 295.755" style="enable-background:new 0 0 295.755 295.755;" xml:space="preserve">
<g>
	<g>
		<path style="fill:#010002;" d="M124.215,122.08c-14.968,6.663-27.07,18.558-34.043,33.358h19.874
			C112.978,142.085,117.894,130.63,124.215,122.08z"/>
		<path style="fill:#010002;" d="M160.548,119.072c-1.077-0.593-2.176-1.077-3.291-1.458v1.458v36.366h25.112
			C178.078,137.886,170.088,124.337,160.548,119.072z"/>
		<path style="fill:#010002;" d="M157.257,213.315v17.574v20.244c7.337-2.475,13.957-9.796,18.971-20.244
			c2.486-5.173,4.558-11.107,6.141-17.574H157.257z"/>
		<path style="fill:#010002;" d="M121.272,155.438h25.112v-36.366v-1.452c-1.115,0.375-2.208,0.859-3.285,1.452
			C133.559,124.337,125.569,137.886,121.272,155.438z"/>
		<path style="fill:#010002;" d="M127.413,230.888c5.015,10.448,11.634,17.769,18.971,20.244v-20.244v-17.574h-25.112
			C122.855,219.782,124.927,225.716,127.413,230.888z"/>
		<path style="fill:#010002;" d="M185.79,184.373c0-6.233-0.479-12.276-1.316-18.058h-27.217v36.121h27.217
			C185.312,196.655,185.79,190.612,185.79,184.373z"/>
		<path style="fill:#010002;" d="M117.851,184.373c0,6.233,0.479,12.281,1.316,18.063h27.217v-36.121h-27.217
			C118.33,172.097,117.851,178.146,117.851,184.373z"/>
		<path style="fill:#010002;" d="M110.046,213.315H90.172c3.057,6.483,7.087,12.401,11.928,17.574
			c6.211,6.636,13.706,12.042,22.115,15.784c-3.329-4.504-6.26-9.812-8.724-15.784C113.271,225.52,111.433,219.635,110.046,213.315z
			"/>
		<path style="fill:#010002;" d="M106.973,184.373c0-6.244,0.435-12.271,1.186-18.058H86.141c-1.588,5.76-2.507,11.797-2.507,18.058
			c0,6.26,0.919,12.298,2.507,18.063h22.017C107.408,196.644,106.973,190.623,106.973,184.373z"/>
		<path style="fill:#010002;" d="M188.156,230.888c-2.469,5.972-5.401,11.281-8.724,15.784c8.409-3.742,15.904-9.149,22.115-15.784
			c4.841-5.173,8.871-11.09,11.928-17.574h-19.874C192.208,219.635,190.37,225.52,188.156,230.888z"/>
		<path style="fill:#010002;" d="M196.668,184.373c0,6.244-0.435,12.271-1.186,18.063H217.5c1.588-5.765,2.507-11.803,2.507-18.063
			c0-6.26-0.919-12.298-2.507-18.058h-22.017C196.233,172.108,196.668,178.129,196.668,184.373z"/>
		<path style="fill:#010002;" d="M179.432,122.085c6.315,8.55,11.232,20.005,14.169,33.352h19.874
			C206.497,140.643,194.4,128.743,179.432,122.085z"/>
		<path style="fill:#010002;" d="M230.206,0H84.749c-19.194,0-34.81,15.621-34.81,34.815v6.831v20.826h-0.685v200.848v5.994h0.62
			c3.019,15.044,17.144,26.439,34.141,26.439h112.605h49.882v-26.439v-5.994V62.473h-16.295v-8.811
			C230.206,53.662,230.206,0,230.206,0z M230.886,184.379c0,17.682-5.88,33.956-15.686,47.124
			c-14.414,19.352-37.399,31.938-63.381,31.938c-26.26,0-49.457-12.853-63.838-32.553c-9.535-13.059-15.229-29.104-15.229-46.509
			c0-27.135,13.685-51.067,34.511-65.301c7.125-4.868,15.11-8.539,23.649-10.878c6.668-1.828,13.652-2.883,20.902-2.883
			s14.234,1.055,20.902,2.883c8.539,2.339,16.524,6.01,23.649,10.878C217.201,133.311,230.886,157.238,230.886,184.379z
			 M219.328,62.473h-0.495h-138H78.94l-0.207-0.239c-7.462-0.778-12.423-5.39-15.05-10.927c-1.436-3.024-2.187-6.255-2.301-9.241
			l-0.566-0.653v-6.598c0-13.201,10.737-23.937,23.932-23.937h134.579v42.784V62.473z"/>
	</g>
</g>
<g>
</g>
<g>
</g>
<g>
</g>
<g>
</g>
<g>
</g>
<g>
</g>
<g>
</g>
<g>
</g>
<g>
</g>
<g>
</g>
<g>
</g>
<g>
</g>
<g>
</g>
<g>
</g>
<g>
</g>
</svg>
