<?xml version="1.0" encoding="iso-8859-1"?>
<!-- Generator: Adobe Illustrator 18.1.1, SVG Export Plug-In . SVG Version: 6.00 Build 0)  -->
<svg version="1.1" id="Capa_1" xmlns="http://www.w3.org/2000/svg" xmlns:xlink="http://www.w3.org/1999/xlink" x="0px" y="0px"
	 viewBox="0 0 308.939 308.939" style="enable-background:new 0 0 308.939 308.939;" xml:space="preserve">
<g>
	<g>
		<path style="fill:#010002;" d="M202.956,31.09c-10.916,0-16.611,7.587-20.326,14.778h9.388h23.79
			c13.94-3.432,20.532-12.298,20.532-20.75c0-7.359-4.64-14.169-12.722-18.683C216.086,2.225,205.605,0,193.313,0
			c-17.639,0-32.591,11.699-37.519,27.75C150.866,11.705,135.914,0,118.275,0c-12.292,0-22.779,2.225-30.306,6.434
			c-8.082,4.514-12.722,11.324-12.722,18.683c0,8.447,6.592,17.318,20.532,20.75h23.79h9.388
			c-3.715-7.19-9.404-14.778-20.326-14.778c-11.988,0-17.068-4.275-17.068-5.972c0-0.805,1.164-2.649,4.357-4.433
			c5.042-2.817,12.978-4.362,22.355-4.362c12.64,0,22.931,10.285,22.931,22.931c0,2.301,0.131,4.504,0.305,6.619h8.18h4.014h4.188
			h4.014h8.18c0.174-2.116,0.305-4.313,0.305-6.619c0-12.646,10.291-22.931,22.931-22.931c9.382,0,17.318,1.55,22.355,4.362
			c3.193,1.784,4.357,3.628,4.357,4.433C220.024,26.82,214.944,31.09,202.956,31.09z"/>
		<polygon style="fill:#010002;" points="28.955,124.783 28.955,308.939 279.979,308.939 279.979,124.783 226.05,124.783 
			253.164,171.173 219.73,171.173 207.846,201.066 159.509,124.783 148.408,124.783 100.071,201.066 88.181,171.173 54.752,171.173 
			81.861,124.783 		"/>
		<polygon style="fill:#010002;" points="299.924,51.307 198.213,51.307 189.016,51.307 180.036,51.307 169.522,51.307 
			161.32,51.307 158.47,51.307 153.107,51.307 150.257,51.307 142.055,51.307 131.541,51.307 122.561,51.307 113.364,51.307 
			9.015,51.307 9.015,110.87 299.924,110.87 		"/>
	</g>
</g>
<g>
</g>
<g>
</g>
<g>
</g>
<g>
</g>
<g>
</g>
<g>
</g>
<g>
</g>
<g>
</g>
<g>
</g>
<g>
</g>
<g>
</g>
<g>
</g>
<g>
</g>
<g>
</g>
<g>
</g>
</svg>
