<?xml version="1.0" encoding="iso-8859-1"?>
<!-- Generator: Adobe Illustrator 18.1.1, SVG Export Plug-In . SVG Version: 6.00 Build 0)  -->
<svg version="1.1" id="Capa_1" xmlns="http://www.w3.org/2000/svg" xmlns:xlink="http://www.w3.org/1999/xlink" x="0px" y="0px"
	 viewBox="0 0 337.222 337.222" style="enable-background:new 0 0 337.222 337.222;" xml:space="preserve">
<g>
	<g>
		<path style="fill:#010002;" d="M331.783,158.494h-13.168v-11.183h-6.233v-30.856c0-5.357-4.346-9.703-9.703-9.703
			s-9.703,4.346-9.703,9.703V158.5H45.547v-42.044c0-5.357-4.346-9.703-9.703-9.703s-9.703,4.346-9.703,9.703v30.323h-7.854V158.5
			H5.439C2.437,158.5,0,160.936,0,163.939v10.416c0,3.002,2.437,5.439,5.439,5.439h12.847v10.65h7.854v30.323
			c0,5.357,4.346,9.703,9.703,9.703s9.703-4.346,9.703-9.703v-40.972h247.434v40.972c0,5.357,4.346,9.703,9.703,9.703
			s9.703-4.346,9.703-9.703v-29.79h6.233v-11.183h13.163c3.002,0,5.439-2.437,5.439-5.439v-10.416
			C337.222,160.931,334.785,158.494,331.783,158.494z"/>
	</g>
</g>
<g>
</g>
<g>
</g>
<g>
</g>
<g>
</g>
<g>
</g>
<g>
</g>
<g>
</g>
<g>
</g>
<g>
</g>
<g>
</g>
<g>
</g>
<g>
</g>
<g>
</g>
<g>
</g>
<g>
</g>
</svg>
