<?xml version="1.0" encoding="iso-8859-1"?>
<!-- Generator: Adobe Illustrator 18.1.1, SVG Export Plug-In . SVG Version: 6.00 Build 0)  -->
<svg version="1.1" id="Capa_1" xmlns="http://www.w3.org/2000/svg" xmlns:xlink="http://www.w3.org/1999/xlink" x="0px" y="0px"
	 viewBox="0 0 321.155 321.155" style="enable-background:new 0 0 321.155 321.155;" xml:space="preserve">
<g>
	<g>
		<path style="fill:#010002;" d="M102.706,4.079c0,133.583,15.654,201.294,49.06,211.019c2.817,0.821,5.744,1.278,8.811,1.278
			s5.994-0.457,8.811-1.278c33.401-9.725,49.06-77.436,49.06-211.019V0H102.706C102.706,0,102.706,4.079,102.706,4.079z
			 M210.285,8.159c-0.185,72.405-5.249,125.289-15.104,158.451c-0.772,2.774-1.599,5.309-2.464,7.636
			c-8.006,22.588-18.721,33.972-32.139,33.972c-13.429,0-24.16-11.411-32.167-34.049c-0.848-2.279-1.653-4.765-2.41-7.468
			c-9.872-33.162-14.952-86.073-15.131-158.543C110.87,8.159,210.285,8.159,210.285,8.159z"/>
		<path style="fill:#010002;" d="M160.583,191.161c16.241,0,33.559-7.87,34.054-100.672h-68.108
			C127.024,183.286,144.336,191.161,160.583,191.161z"/>
		<path style="fill:#010002;" d="M189.796,303.783h-20.407v-79.225c-2.883,0.789-5.82,1.191-8.811,1.191
			c-2.991,0-5.929-0.402-8.811-1.191v79.225h-21.794c-3.002,0-5.439,2.437-5.439,5.439v6.494c0,3.002,2.437,5.439,5.439,5.439
			h59.824c3.002,0,5.439-2.437,5.439-5.439v-6.494C195.235,306.219,192.799,303.783,189.796,303.783z"/>
	</g>
</g>
<g>
</g>
<g>
</g>
<g>
</g>
<g>
</g>
<g>
</g>
<g>
</g>
<g>
</g>
<g>
</g>
<g>
</g>
<g>
</g>
<g>
</g>
<g>
</g>
<g>
</g>
<g>
</g>
<g>
</g>
</svg>
