<?xml version="1.0" encoding="iso-8859-1"?>
<!-- Generator: Adobe Illustrator 18.1.1, SVG Export Plug-In . SVG Version: 6.00 Build 0)  -->
<svg version="1.1" id="Capa_1" xmlns="http://www.w3.org/2000/svg" xmlns:xlink="http://www.w3.org/1999/xlink" x="0px" y="0px"
	 viewBox="0 0 320.905 320.905" style="enable-background:new 0 0 320.905 320.905;" xml:space="preserve">
<g>
	<g>
		<polygon style="fill:#010002;" points="130.652,89.086 130.652,81.238 189.715,81.238 189.715,89.086 197.873,89.086 
			206.032,89.086 206.032,64.921 114.335,64.921 114.335,89.086 122.493,89.086 		"/>
		<path style="fill:#010002;" d="M206.032,99.965h-8.159h-8.159h-59.063h-8.159h-8.159h-14.316c-0.408,0-0.8,0.049-1.202,0.06
			v128.422c0.402,0.011,0.8,0.06,1.202,0.06h117.522c1.838,0,3.639-0.141,5.417-0.359V100.318c-1.779-0.212-3.579-0.359-5.417-0.359
			h-11.509V99.965z M120.807,164.02l-7.707-23.094l41.435-13.826l4.754-1.588l0.528,1.588l7.174,21.512L120.807,164.02z
			 M194.153,204.813c-10.514,0-19.042-8.523-19.042-19.042c0-10.514,8.523-19.042,19.042-19.042
			c10.514,0,19.042,8.523,19.042,19.042C213.195,196.29,204.672,204.813,194.153,204.813z"/>
		<path style="fill:#010002;" d="M239.275,105.578v117.315c13.837-7.664,23.214-22.398,23.214-39.335v-38.645
			C262.489,127.976,253.112,113.241,239.275,105.578z"/>
		<path style="fill:#010002;" d="M55.071,144.913v38.645c0,18.607,11.308,34.576,27.429,41.402V103.505
			C66.378,110.337,55.071,126.301,55.071,144.913z"/>
		<path style="fill:#010002;" d="M246.21,27.875h-68.151c0.011-0.228,0.071-0.446,0.071-0.68c0-12.39-10.046-22.436-22.436-22.436
			c-12.39,0-22.436,10.046-22.436,22.436c0,0.234,0.06,0.451,0.071,0.68H74.695C33.505,27.875,0,62.033,0,104.022v152.413h320.905
			V104.022C320.905,62.033,287.395,27.875,246.21,27.875z M299.149,234.679H239.89h-0.609h-16.317H98.811H82.494H77.67H21.756
			V104.022c0-29.991,23.747-54.391,52.938-54.391h80.999h90.517c29.191,0,52.938,24.4,52.938,54.391V234.679z"/>
		<circle style="fill:#010002;" cx="57.79" cy="293.709" r="22.436"/>
		<circle style="fill:#010002;" cx="264.474" cy="293.709" r="22.436"/>
	</g>
</g>
<g>
</g>
<g>
</g>
<g>
</g>
<g>
</g>
<g>
</g>
<g>
</g>
<g>
</g>
<g>
</g>
<g>
</g>
<g>
</g>
<g>
</g>
<g>
</g>
<g>
</g>
<g>
</g>
<g>
</g>
</svg>
