<?xml version="1.0" encoding="iso-8859-1"?>
<!-- Generator: Adobe Illustrator 16.0.0, SVG Export Plug-In . SVG Version: 6.00 Build 0)  -->
<!DOCTYPE svg PUBLIC "-//W3C//DTD SVG 1.1//EN" "http://www.w3.org/Graphics/SVG/1.1/DTD/svg11.dtd">
<svg version="1.1" id="Capa_1" xmlns="http://www.w3.org/2000/svg" xmlns:xlink="http://www.w3.org/1999/xlink" x="0px" y="0px"
	 width="377.941px" height="377.941px" viewBox="0 0 377.941 377.941" style="enable-background:new 0 0 377.941 377.941;"
	 xml:space="preserve">
<g>
	<g>
		<path d="M349.358,91.116c-4.371,0-5.933,4.405-5.933,8.172c0,3.807,1.85,7.896,5.896,7.896c4.096,0,5.921-4.089,5.921-8.137
			C355.243,95.232,353.406,91.116,349.358,91.116z"/>
		<path d="M364.166,40.634h-29.688c-6.641,0-12.172,4.692-13.486,10.935c-0.372-6.095-5.387-10.935-11.577-10.935H11.646
			C5.215,40.634,0,45.849,0,52.28v273.377c0,6.438,5.215,11.649,11.646,11.649h99.863c-0.318-2.763-0.489-5.627-0.489-8.551
			c0-23.726,10.979-42.959,24.532-42.959h58.685c13.547,0,24.536,19.233,24.536,42.959c0,2.93-0.174,5.788-0.492,8.551h91.135
			c6.431,0,11.644-5.212,11.644-11.649V216.287c1.41,6.125,6.863,10.7,13.408,10.7h29.688c7.614,0,13.787-6.173,13.787-13.787
			V54.421C377.947,46.81,371.78,40.634,364.166,40.634z M73.165,241.386c0,6.438-5.215,11.649-11.646,11.649H48.41
			c-6.431,0-11.646-5.212-11.646-11.649v-52.05c0-6.428,5.215-11.643,11.646-11.643h13.103c6.431,0,11.646,5.215,11.646,11.643
			v52.05H73.165z M73.165,136.551c0,6.432-5.215,11.646-11.646,11.646H48.41c-6.431,0-11.646-5.215-11.646-11.646V84.502
			c0-6.431,5.215-11.646,11.646-11.646h13.103c6.431,0,11.646,5.215,11.646,11.646v52.049H73.165z M143.061,241.386
			c0,6.438-5.215,11.649-11.646,11.649h-13.102c-6.435,0-11.646-5.212-11.646-11.649v-52.05c0-6.428,5.212-11.643,11.646-11.643
			h13.102c6.431,0,11.646,5.215,11.646,11.643V241.386z M143.061,136.551c0,6.432-5.215,11.646-11.646,11.646h-13.102
			c-6.435,0-11.646-5.215-11.646-11.646V84.502c0-6.431,5.212-11.646,11.646-11.646h13.102c6.431,0,11.646,5.215,11.646,11.646
			V136.551z M212.947,241.386c0,6.438-5.212,11.649-11.643,11.649h-13.105c-6.432,0-11.646-5.212-11.646-11.649v-52.05
			c0-6.428,5.215-11.643,11.646-11.643h13.105c6.431,0,11.643,5.215,11.643,11.643V241.386z M212.947,136.551
			c0,6.432-5.212,11.646-11.643,11.646h-13.105c-6.432,0-11.646-5.215-11.646-11.646V84.502c0-6.431,5.215-11.646,11.646-11.646
			h13.105c6.431,0,11.643,5.215,11.643,11.646V136.551z M282.844,241.386c0,6.438-5.219,11.649-11.644,11.649h-13.114
			c-6.426,0-11.644-5.212-11.644-11.649v-52.05c0-6.428,5.218-11.643,11.644-11.643h13.103c6.437,0,11.649,5.215,11.649,11.643
			v52.05H282.844z M282.844,136.551c0,6.432-5.219,11.646-11.644,11.646h-13.114c-6.426,0-11.644-5.215-11.644-11.646V84.502
			c0-6.431,5.218-11.646,11.644-11.646h13.103c6.437,0,11.649,5.215,11.649,11.646v52.049H282.844z M339.162,57.273
			c0-2.711,0.793-5.885,3.039-5.885c2.258,0,3.051,3.168,3.051,5.885v1.06c0,1.549,1.261,2.807,2.81,2.807h2.57
			c1.549,0,2.81-1.258,2.81-2.807v-1.06c0-2.711,0.805-5.885,3.062-5.885s3.062,3.168,3.062,5.885v14.604
			c0,2.711-0.805,5.884-3.062,5.884s-3.062-3.167-3.062-5.884v-2.231c0-1.549-1.261-2.81-2.81-2.81h-2.57
			c-1.549,0-2.81,1.261-2.81,2.81v2.231c0,2.711-0.793,5.884-3.051,5.884c-2.246,0-3.039-3.167-3.039-5.884V57.273z
			 M350.812,165.008c2.138,0,6.245,0.271,6.245,2.78c0,2.516-4.107,2.786-5.885,2.786c-1.909,0-3.17,1.192-3.17,2.66
			c0,1.471,1.261,2.663,2.81,2.663h1.405c1.766,0,5.885,0.271,5.885,2.798s-4.119,2.798-5.885,2.798h-4.407
			c-3.243,0-5.885-2.64-5.885-5.885v-14.604c0-3.24,2.636-5.885,5.885-5.885h3.879c1.777,0,5.885,0.27,5.885,2.798
			c0,2.528-4.107,2.798-5.885,2.798h-0.877c-1.524,0-2.81,0.982-2.81,2.147C348.002,164.023,349.299,165.008,350.812,165.008z
			 M352.421,216.07h-4.263c-3.243,0-5.885-2.642-5.885-5.885v-14.604c0-2.714,0.792-5.885,3.044-5.885
			c2.24,0,3.032,3.171,3.032,5.885v12.076c0,1.549,1.262,2.81,2.811,2.81h1.261c1.777,0,5.885,0.271,5.885,2.799
			C358.306,215.793,354.198,216.07,352.421,216.07z M354.402,126.178c-1.093,0-2.018,1.285-2.018,2.811v12.045
			c0,2.711-0.805,5.884-3.062,5.884s-3.062-3.173-3.062-5.884v-12.045c0-1.525-0.912-2.811-2.005-2.811
			c-3.087,0-5.074-1.108-5.074-2.816c0-2.612,4.497-2.816,5.885-2.816h8.551c1.387,0,5.885,0.205,5.885,2.816
			C359.495,125.07,357.501,126.178,354.402,126.178z M349.148,112.718c-7.073,0-12.01-5.497-12.01-13.354
			c0-8.106,5.074-13.769,12.353-13.769c7.073,0,12.009,5.479,12.009,13.319C361.5,108.452,355.298,112.718,349.148,112.718z"/>
	</g>
</g>
<g>
</g>
<g>
</g>
<g>
</g>
<g>
</g>
<g>
</g>
<g>
</g>
<g>
</g>
<g>
</g>
<g>
</g>
<g>
</g>
<g>
</g>
<g>
</g>
<g>
</g>
<g>
</g>
<g>
</g>
</svg>
