<?xml version="1.0" encoding="iso-8859-1"?>
<!-- Generator: Adobe Illustrator 18.1.1, SVG Export Plug-In . SVG Version: 6.00 Build 0)  -->
<svg version="1.1" id="Capa_1" xmlns="http://www.w3.org/2000/svg" xmlns:xlink="http://www.w3.org/1999/xlink" x="0px" y="0px"
	 viewBox="0 0 290.082 290.082" style="enable-background:new 0 0 290.082 290.082;" xml:space="preserve">
<g>
	<g>
		<path style="fill:#010002;" d="M272.328,13.598c0-6.01-4.868-10.878-10.878-10.878H26.543c-6.01,0-10.878,4.868-10.878,10.878
			v44.241h256.664V13.598z M43.6,43.513c-7.887,0-14.278-6.391-14.278-14.278S35.713,14.957,43.6,14.957s14.278,6.391,14.278,14.278
			S51.486,43.513,43.6,43.513z M152.381,43.513c-7.887,0-14.278-6.391-14.278-14.278s6.391-14.278,14.278-14.278
			s14.278,6.391,14.278,14.278S160.267,43.513,152.381,43.513z M195.893,43.513c-7.887,0-14.278-6.391-14.278-14.278
			s6.391-14.278,14.278-14.278c7.887,0,14.278,6.391,14.278,14.278S203.78,43.513,195.893,43.513z M239.406,43.513
			c-7.887,0-14.278-6.391-14.278-14.278s6.391-14.278,14.278-14.278c7.887,0,14.278,6.391,14.278,14.278
			S247.292,43.513,239.406,43.513z"/>
		<path style="fill:#010002;" d="M15.665,74.156H0v213.206h290.082V74.156h-17.753H15.665z M143.276,268.325
			c-49.218,0-89.114-39.896-89.114-89.114c0-46.711,35.952-84.958,81.684-88.738c2.453-0.201,4.922-0.375,7.43-0.375
			s4.971,0.174,7.43,0.375c45.732,3.786,81.684,42.033,81.684,88.738C232.389,228.43,192.494,268.325,143.276,268.325z"/>
		<path style="fill:#010002;" d="M148.715,111.854v134.715c37.203,0,67.357-30.16,67.357-67.357S185.918,111.854,148.715,111.854z"
			/>
	</g>
</g>
<g>
</g>
<g>
</g>
<g>
</g>
<g>
</g>
<g>
</g>
<g>
</g>
<g>
</g>
<g>
</g>
<g>
</g>
<g>
</g>
<g>
</g>
<g>
</g>
<g>
</g>
<g>
</g>
<g>
</g>
</svg>
