<?xml version="1.0" encoding="iso-8859-1"?>
<!-- Generator: Adobe Illustrator 16.0.0, SVG Export Plug-In . SVG Version: 6.00 Build 0)  -->
<!DOCTYPE svg PUBLIC "-//W3C//DTD SVG 1.1//EN" "http://www.w3.org/Graphics/SVG/1.1/DTD/svg11.dtd">
<svg version="1.1" id="Capa_1" xmlns="http://www.w3.org/2000/svg" xmlns:xlink="http://www.w3.org/1999/xlink" x="0px" y="0px"
	 width="365.477px" height="365.477px" viewBox="0 0 365.477 365.477" style="enable-background:new 0 0 365.477 365.477;"
	 xml:space="preserve">
<g>
	<g>
		<polygon points="57.523,125.146 316.801,125.146 316.801,230.926 365.477,230.926 365.477,102.229 57.523,102.229 		"/>
		<rect x="57.523" y="26.001" width="307.954" height="22.941"/>
		<path d="M300.276,133.484H57.523H0v205.991h150.198h0.063c60.141-0.816,103.309-15.564,128.313-43.811
			c23.245-26.266,22.062-54.974,21.695-59.586v-5.152v-97.442H300.276z M281.829,230.926v5.555l0.054,0.997
			c0.03,0.24,2.36,23.953-17.119,45.967c-21.401,24.193-59.988,36.827-114.686,37.584H18.447V151.931h39.076h224.3v78.996H281.829z"
			/>
		<path d="M91.816,237.034v-6.107v-0.582h-23.14v0.582v13.457h15.784C88.526,244.383,91.816,241.093,91.816,237.034z"/>
		<path d="M46.468,191.686c-4.065,0-7.356,3.29-7.356,7.35v7.722h18.417h5.005v-15.071h-5.005H46.468z"/>
		<path d="M46.468,244.383h16.066v-13.457v-0.582h-5.005H39.112v6.689C39.112,241.093,42.403,244.383,46.468,244.383z"/>
		<path d="M91.816,199.036c0-4.06-3.296-7.35-7.355-7.35H68.677v15.071h23.14V199.036z"/>
		<polygon points="62.528,224.196 62.528,212.907 57.523,212.907 39.112,212.907 39.112,224.196 57.523,224.196 		"/>
		<rect x="68.677" y="212.907" width="23.14" height="11.289"/>
		<rect x="37.792" y="273.891" width="148.601" height="17.931"/>
	</g>
</g>
<g>
</g>
<g>
</g>
<g>
</g>
<g>
</g>
<g>
</g>
<g>
</g>
<g>
</g>
<g>
</g>
<g>
</g>
<g>
</g>
<g>
</g>
<g>
</g>
<g>
</g>
<g>
</g>
<g>
</g>
</svg>
