<?xml version="1.0" encoding="iso-8859-1"?>
<!-- Generator: Adobe Illustrator 16.0.0, SVG Export Plug-In . SVG Version: 6.00 Build 0)  -->
<!DOCTYPE svg PUBLIC "-//W3C//DTD SVG 1.1//EN" "http://www.w3.org/Graphics/SVG/1.1/DTD/svg11.dtd">
<svg version="1.1" id="Capa_1" xmlns="http://www.w3.org/2000/svg" xmlns:xlink="http://www.w3.org/1999/xlink" x="0px" y="0px"
	 width="346.981px" height="346.982px" viewBox="0 0 346.981 346.982" style="enable-background:new 0 0 346.981 346.982;"
	 xml:space="preserve">
<g>
	<g>
		<path d="M269.52,0.412h-55.677v40.232h85.935v13.829h-85.935v18.447h85.935v13.829h-85.935v18.446h85.935v13.826h-85.935v18.447
			h85.935v13.829h-85.935v18.447h85.935v13.826h-85.935v18.446h85.935v13.835h-85.935v18.447h85.935v13.822h-85.935v18.447h85.935
			v13.835h-85.935v18.446h85.935v13.823h-85.935v33.897h55.677c42.784,0,77.462-34.689,77.462-77.468V77.879
			C346.993,35.095,312.304,0.412,269.52,0.412z"/>
		<path d="M160.911,5.657c-12.616,0-23.821,5.969-31.021,15.21c-5.191,6.665-8.308,15.018-8.308,24.115
			c0,1.928,0.187,3.801,0.451,5.653c0.348,2.435,0.916,4.801,1.69,7.071l-8.505,50.822l-1.604,13.331l-2.405,19.927
			c-0.447-0.306-0.946-0.541-1.42-0.804c-1.391-0.775-2.871-1.396-4.465-1.766l2.093-17.357h-20.23L76.309,58.277
			c0.88-2.447,1.519-4.999,1.9-7.642c0.264-1.853,0.448-3.726,0.448-5.653c0-9.442-3.333-18.107-8.884-24.884
			c-7.215-8.809-18.17-14.436-30.444-14.436C17.609,5.657,0,23.266,0,44.982c0,21.719,17.609,39.331,39.329,39.331
			c5.434,0,10.62-1.107,15.33-3.101l32.276,210.636l11.767-97.638l0.357-2.967l2.183-18.11c0.081,0,0.162,0.024,0.24,0.024
			c1.021,0,2.005-0.133,2.975-0.301c1.084-0.192,2.117-0.486,3.12-0.867l-2.675,22.221L90.408,314.474l0.054,0.354
			c5.398,35.242,14.087,35.229,19.401-0.024l35.245-233.823c4.84,2.131,10.181,3.332,15.814,3.332
			c21.719,0,39.325-17.612,39.325-39.331C200.248,23.266,182.63,5.657,160.911,5.657z M52.068,64.335
			c-3.657,2.414-8.029,3.837-12.739,3.837c-12.808,0-23.188-10.382-23.188-23.19c0-12.805,10.379-23.185,23.188-23.185
			s23.188,10.379,23.188,23.185c0,1.964-0.312,3.831-0.775,5.653C60.31,56.322,56.835,61.192,52.068,64.335z M94.471,164.438
			c-2.453-2.029-4.044-5.053-4.044-8.484c0-2.093,0.616-4.023,1.625-5.689c1.937-3.204,5.416-5.368,9.431-5.368
			c1.083,0,2.11,0.204,3.098,0.498c1.531,0.45,2.921,1.213,4.095,2.234c0.604,0.516,1.144,1.087,1.625,1.726
			c1.384,1.847,2.231,4.113,2.231,6.605c0,3.432-1.598,6.461-4.051,8.491c-0.879,0.727-1.84,1.336-2.915,1.765
			c-1.114,0.441-2.324,0.693-3.585,0.75c-0.171,0.006-0.333,0.048-0.504,0.048C98.8,167.008,96.383,166.018,94.471,164.438z
			 M160.911,68.178c-4.936,0-9.494-1.57-13.25-4.2c-4.5-3.149-7.785-7.863-9.163-13.343c-0.454-1.822-0.775-3.689-0.775-5.653
			c0-12.805,10.379-23.185,23.188-23.185s23.184,10.379,23.184,23.185C184.095,57.791,173.713,68.178,160.911,68.178z"/>
	</g>
</g>
<g>
</g>
<g>
</g>
<g>
</g>
<g>
</g>
<g>
</g>
<g>
</g>
<g>
</g>
<g>
</g>
<g>
</g>
<g>
</g>
<g>
</g>
<g>
</g>
<g>
</g>
<g>
</g>
<g>
</g>
</svg>
