<?xml version="1.0" encoding="utf-8"?>
<!-- Generator: Adobe Illustrator 16.0.0, SVG Export Plug-In . SVG Version: 6.00 Build 0)  -->
<!DOCTYPE svg PUBLIC "-//W3C//DTD SVG 1.1//EN" "http://www.w3.org/Graphics/SVG/1.1/DTD/svg11.dtd">
<svg version="1.1" id="Layer_1" xmlns="http://www.w3.org/2000/svg" xmlns:xlink="http://www.w3.org/1999/xlink" x="0px" y="0px"
	 width="595.282px" height="595.281px" viewBox="0 123.305 595.282 595.281" enable-background="new 0 123.305 595.282 595.281"
	 xml:space="preserve">
<path fill="#FFFFFF" d="M587.188,637.967L471.259,522.062c-5.231-5.232-12.324-8.139-19.765-8.139h-18.951
	c32.089-41.042,51.156-92.652,51.156-148.809c0-133.578-108.255-241.81-241.844-241.81S0,231.537,0,365.114
	c0,133.578,108.255,241.81,241.855,241.81c56.156,0,107.79-19.067,148.832-51.157v18.951c0,7.441,2.906,14.533,8.138,19.766
	l115.929,115.905c10.93,10.929,28.602,10.929,39.414,0l32.903-32.903C598,666.557,598,648.896,587.188,637.967z M241.856,532.514
	c-92.478,0-167.423-74.806-167.423-167.399c0-92.466,74.817-167.399,167.423-167.399c92.478,0,167.423,74.806,167.423,167.399
	C409.279,457.58,334.461,532.514,241.856,532.514z M241.879,253.522c-47.413,0-85.851,38.426-85.851,85.839
	c0,38.321,56.109,108.186,77.607,133.543c3.805,4.553,10.58,5.159,15.132,1.354c0.491-0.411,0.944-0.864,1.354-1.354
	c21.498-25.357,77.607-95.21,77.607-133.543C327.73,291.948,289.292,253.522,241.879,253.522L241.879,253.522z M241.879,365.138
	c-15.417,0-27.903-12.499-27.903-27.904c0-15.417,12.498-27.904,27.903-27.904s27.903,12.487,27.903,27.904
	C269.782,352.639,257.284,365.138,241.879,365.138z"/>
</svg>
