<?xml version="1.0" encoding="utf-8"?>
<!-- Generator: Adobe Illustrator 16.0.0, SVG Export Plug-In . SVG Version: 6.00 Build 0)  -->
<!DOCTYPE svg PUBLIC "-//W3C//DTD SVG 1.1//EN" "http://www.w3.org/Graphics/SVG/1.1/DTD/svg11.dtd">
<svg version="1.1" id="Layer_1" xmlns="http://www.w3.org/2000/svg" xmlns:xlink="http://www.w3.org/1999/xlink" x="0px" y="0px"
	 width="595.279px" height="416.696px" viewBox="0 212.597 595.279 416.696" enable-background="new 0 212.597 595.279 416.696"
	 xml:space="preserve">
<path fill="#FFFFFF" d="M89.292,391.181c32.833,0,59.527-26.695,59.527-59.528s-26.694-59.528-59.527-59.528
	c-32.834,0-59.528,26.694-59.528,59.528S56.458,391.181,89.292,391.181z M505.988,391.181c32.834,0,59.528-26.695,59.528-59.528
	s-26.694-59.528-59.528-59.528c-32.833,0-59.527,26.694-59.527,59.528S473.155,391.181,505.988,391.181z M535.752,420.945h-59.528
	c-16.37,0-31.159,6.604-41.948,17.3c37.483,20.556,64.085,57.668,69.853,101.756h61.388c16.463,0,29.764-13.301,29.764-29.764
	v-29.765C595.28,447.64,568.585,420.945,535.752,420.945z M297.64,420.945c57.575,0,104.174-46.6,104.174-104.174
	S355.215,212.597,297.64,212.597c-57.574,0-104.174,46.599-104.174,104.174S240.066,420.945,297.64,420.945z M369.073,450.709h-7.72
	c-19.347,9.302-40.833,14.882-63.714,14.882s-44.273-5.58-63.713-14.882h-7.721c-59.156,0-107.15,47.994-107.15,107.15v26.788
	c0,24.648,19.998,44.646,44.646,44.646h267.876c24.647,0,44.646-19.997,44.646-44.646v-26.788
	C476.224,498.703,428.23,450.709,369.073,450.709z M161.005,438.245c-10.79-10.696-25.579-17.3-41.949-17.3H59.528
	C26.695,420.945,0,447.64,0,480.473v29.765c0,16.463,13.301,29.764,29.764,29.764h61.295
	C96.919,495.913,123.521,458.801,161.005,438.245L161.005,438.245z"/>
</svg>
