<?xml version="1.0" encoding="utf-8"?>
<!-- Generator: Adobe Illustrator 16.0.0, SVG Export Plug-In . SVG Version: 6.00 Build 0)  -->
<!DOCTYPE svg PUBLIC "-//W3C//DTD SVG 1.1//EN" "http://www.w3.org/Graphics/SVG/1.1/DTD/svg11.dtd">
<svg version="1.1" id="Layer_1" xmlns="http://www.w3.org/2000/svg" xmlns:xlink="http://www.w3.org/1999/xlink" x="0px" y="0px"
	 width="595.279px" height="841.891px" viewBox="0 0 595.279 841.891" enable-background="new 0 0 595.279 841.891"
	 xml:space="preserve">
<path fill="#FFFFFF" d="M520.87,272.125H74.41c-41.097,0-74.41,33.314-74.41,74.41v347.247c0,41.096,33.313,74.409,74.41,74.409
	h24.803v24.804c0,13.704,11.1,24.804,24.804,24.804h49.606c13.704,0,24.804-11.1,24.804-24.804v-24.804h198.427v24.804
	c0,13.704,11.099,24.804,24.803,24.804h49.606c13.704,0,24.804-11.1,24.804-24.804v-24.804h24.804
	c41.096,0,74.409-33.313,74.409-74.409V346.535C595.28,305.439,561.966,272.125,520.87,272.125z M496.067,606.97
	c0,6.853-5.55,12.402-12.401,12.402h-372.05c-6.853,0-12.402-5.55-12.402-12.402v-24.803c0-6.853,5.55-12.401,12.402-12.401h372.05
	c6.852,0,12.401,5.549,12.401,12.401V606.97z M496.067,458.15c0,6.852-5.55,12.401-12.401,12.401h-372.05
	c-6.853,0-12.402-5.55-12.402-12.401v-24.804c0-6.852,5.55-12.401,12.402-12.401h372.05c6.852,0,12.401,5.55,12.401,12.401V458.15z
	 M223.23,98.501h148.82v124.017h74.41V98.501c0-41.096-33.314-74.41-74.41-74.41H223.23c-41.096,0-74.41,33.313-74.41,74.41v124.017
	h74.41V98.501z"/>
</svg>
